<?xml version="1.0" encoding="iso-8859-1"?>
<!-- Uploaded to: SVG Repo, www.svgrepo.com, Generator: SVG Repo Mixer Tools -->
<svg fill="#ffffff" height="800px" width="800px" version="1.1" id="Layer_1" xmlns="http://www.w3.org/2000/svg" xmlns:xlink="http://www.w3.org/1999/xlink" 
	 viewBox="0 0 512 512" xml:space="preserve">
<g>
	<g>
		<path d="M238.7,339.122c-0.142-0.739-0.342-1.45-0.625-2.133c-0.286-0.684-0.656-1.367-1.053-1.964
			c-0.428-0.625-0.911-1.222-1.422-1.733c-2.617-2.647-6.572-3.87-10.27-3.131c-0.711,0.172-1.45,0.369-2.133,0.656
			c-0.683,0.283-1.336,0.653-1.961,1.053c-0.628,0.425-1.195,0.88-1.736,1.422c-0.511,0.511-0.994,1.108-1.394,1.733
			c-0.425,0.597-0.767,1.28-1.053,1.964c-0.284,0.683-0.511,1.394-0.653,2.133c-0.142,0.711-0.228,1.478-0.228,2.219
			c0,0.739,0.086,1.478,0.228,2.217c0.142,0.711,0.369,1.453,0.653,2.133c0.286,0.683,0.628,1.339,1.053,1.964
			c0.4,0.625,0.883,1.194,1.422,1.706c2.105,2.133,5.036,3.358,8.022,3.358c0.739,0,1.478-0.086,2.22-0.228
			c0.739-0.145,1.45-0.37,2.133-0.656c0.68-0.283,1.364-0.625,1.961-1.053c0.625-0.397,1.222-0.881,1.736-1.422
			c2.133-2.103,3.328-5.033,3.328-8.019C238.928,340.6,238.87,339.833,238.7,339.122z"/>
	</g>
</g>
<g>
	<g>
		<path d="M227.322,293.611c-0.142-0.739-0.342-1.45-0.656-2.133c-0.255-0.684-0.625-1.367-1.022-1.964
			c-0.428-0.625-0.911-1.222-1.422-1.733c-2.617-2.647-6.572-3.842-10.27-3.131c-0.739,0.172-1.45,0.37-2.133,0.656
			c-0.683,0.283-1.336,0.653-1.961,1.053c-0.628,0.425-1.195,0.88-1.736,1.422c-0.511,0.511-0.994,1.108-1.394,1.733
			c-0.425,0.597-0.767,1.28-1.053,1.964c-0.284,0.683-0.511,1.394-0.653,2.133c-0.142,0.711-0.228,1.478-0.228,2.219
			c0,0.739,0.086,1.478,0.228,2.217c0.142,0.711,0.369,1.453,0.653,2.133c0.286,0.683,0.628,1.339,1.053,1.964
			c0.4,0.625,0.883,1.194,1.422,1.706c0.514,0.542,1.081,1.025,1.708,1.422c0.625,0.428,1.278,0.769,1.961,1.053
			c0.683,0.286,1.394,0.511,2.133,0.656c0.739,0.142,1.481,0.228,2.22,0.228c3.014,0,5.944-1.225,8.05-3.358
			c0.511-0.511,0.994-1.081,1.422-1.706c0.397-0.625,0.767-1.281,1.022-1.964c0.314-0.681,0.514-1.422,0.656-2.133
			c0.169-0.739,0.228-1.478,0.228-2.217C227.55,295.089,227.492,294.322,227.322,293.611z"/>
	</g>
</g>
<g>
	<g>
		<path d="M181.811,282.206c-0.142-0.711-0.342-1.422-0.625-2.105c-0.286-0.684-0.656-1.367-1.053-1.964
			c-0.428-0.625-0.911-1.222-1.422-1.733c-2.106-2.133-5.064-3.328-8.05-3.328s-5.917,1.194-8.05,3.328
			c-0.511,0.511-0.994,1.108-1.394,1.733c-0.425,0.597-0.767,1.28-1.053,1.964c-0.284,0.683-0.511,1.394-0.653,2.105
			c-0.142,0.739-0.228,1.506-0.228,2.247c0,2.986,1.222,5.916,3.328,8.05c2.133,2.103,5.064,3.328,8.05,3.328
			s5.917-1.225,8.05-3.328c2.105-2.133,3.328-5.064,3.328-8.05C182.039,283.711,181.981,282.945,181.811,282.206z"/>
	</g>
</g>
<g>
	<g>
		<path d="M181.811,327.745c-0.142-0.739-0.342-1.45-0.625-2.133c-0.286-0.684-0.656-1.367-1.053-1.964
			c-0.428-0.625-0.911-1.222-1.422-1.733c-2.133-2.133-5.064-3.328-8.05-3.328s-5.917,1.194-8.05,3.328
			c-0.511,0.511-0.994,1.108-1.394,1.733c-0.425,0.597-0.767,1.28-1.053,1.964c-0.284,0.683-0.511,1.394-0.653,2.133
			c-0.142,0.711-0.228,1.478-0.228,2.22c0,2.986,1.222,5.916,3.328,8.05c2.133,2.103,5.064,3.328,8.05,3.328s5.917-1.225,8.05-3.328
			c2.105-2.133,3.328-5.064,3.328-8.05C182.039,329.222,181.981,328.456,181.811,327.745z"/>
	</g>
</g>
<g>
	<g>
		<path d="M190.089,367.425c-0.542-0.542-1.111-0.997-1.736-1.422c-0.625-0.4-1.281-0.769-1.961-1.053
			c-0.684-0.286-1.395-0.484-2.133-0.625c-3.7-0.769-7.625,0.453-10.27,3.1c-0.511,0.511-0.994,1.108-1.394,1.733
			c-0.425,0.597-0.767,1.28-1.053,1.964c-0.284,0.683-0.511,1.394-0.653,2.133c-0.142,0.711-0.228,1.478-0.228,2.22
			c0,2.986,1.222,5.916,3.328,8.019c2.133,2.133,5.064,3.358,8.05,3.358c0.739,0,1.508-0.086,2.219-0.228
			c0.739-0.144,1.45-0.37,2.133-0.656c0.68-0.283,1.336-0.625,1.961-1.053c0.625-0.397,1.194-0.881,1.736-1.422
			c0.511-0.511,0.994-1.081,1.422-1.706c0.397-0.625,0.767-1.281,1.053-1.964c0.283-0.711,0.483-1.422,0.625-2.133
			c0.17-0.739,0.228-1.478,0.228-2.217C193.417,372.486,192.222,369.528,190.089,367.425z"/>
	</g>
</g>
<g>
	<g>
		<path d="M136.3,361.878c-0.142-0.739-0.37-1.45-0.656-2.133c-0.283-0.684-0.625-1.367-1.022-1.964
			c-0.428-0.625-0.911-1.222-1.422-1.733c-2.647-2.647-6.572-3.842-10.27-3.131c-0.711,0.172-1.45,0.369-2.133,0.656
			c-0.683,0.283-1.336,0.653-1.961,1.053c-0.628,0.425-1.195,0.908-1.736,1.422c-0.511,0.511-0.994,1.108-1.422,1.733
			c-0.397,0.597-0.739,1.28-1.025,1.964c-0.284,0.683-0.511,1.394-0.653,2.133c-0.142,0.711-0.228,1.478-0.228,2.22
			c0,0.739,0.086,1.478,0.228,2.217c0.142,0.711,0.369,1.453,0.653,2.133c0.286,0.683,0.628,1.339,1.053,1.964
			c0.4,0.625,0.883,1.194,1.394,1.706c0.542,0.542,1.108,1.025,1.736,1.422c0.625,0.428,1.278,0.769,1.961,1.053
			c0.683,0.286,1.422,0.511,2.133,0.656c0.739,0.142,1.481,0.228,2.219,0.228c0.739,0,1.508-0.086,2.22-0.228
			c0.739-0.145,1.45-0.37,2.133-0.656c0.68-0.283,1.364-0.625,1.961-1.053c0.625-0.397,1.222-0.881,1.736-1.422
			c2.105-2.103,3.328-5.033,3.328-8.019C136.528,363.356,136.442,362.589,136.3,361.878z"/>
	</g>
</g>
<g>
	<g>
		<path d="M133.2,299.158c-0.514-0.542-1.111-0.997-1.736-1.422c-0.597-0.4-1.281-0.769-1.961-1.053
			c-0.683-0.286-1.395-0.484-2.133-0.625c-1.453-0.314-2.958-0.314-4.439,0c-0.711,0.142-1.45,0.339-2.133,0.625
			c-0.683,0.283-1.336,0.653-1.961,1.053c-0.628,0.425-1.195,0.88-1.736,1.422c-0.511,0.511-0.994,1.108-1.422,1.733
			c-0.397,0.597-0.739,1.28-1.025,1.964c-0.284,0.683-0.511,1.394-0.653,2.133c-0.142,0.711-0.228,1.478-0.228,2.219
			c0,0.739,0.086,1.478,0.228,2.217c0.142,0.711,0.369,1.453,0.653,2.133c0.286,0.683,0.628,1.339,1.053,1.964
			c0.4,0.625,0.883,1.194,1.394,1.736c0.542,0.511,1.108,0.994,1.736,1.392c0.625,0.428,1.278,0.769,1.961,1.053
			c0.683,0.286,1.422,0.511,2.133,0.656c0.739,0.142,1.481,0.228,2.219,0.228c0.739,0,1.508-0.086,2.22-0.228
			c0.739-0.144,1.45-0.37,2.133-0.656c0.68-0.283,1.364-0.625,1.961-1.053c0.625-0.397,1.222-0.881,1.736-1.392
			c0.511-0.542,0.994-1.111,1.422-1.736c0.397-0.625,0.739-1.281,1.022-1.964c0.286-0.681,0.514-1.422,0.656-2.133
			c0.142-0.739,0.228-1.478,0.228-2.217C136.528,304.192,135.306,301.261,133.2,299.158z"/>
	</g>
</g>
<g>
	<g>
		<path d="M512,159.289C512,71.456,440.544,0,352.711,0c-38.23,0-75.197,13.747-104.092,38.711
			c-26.167,22.608-44.206,53.064-51.511,86.539c-1.231-0.025-2.45-0.094-3.686-0.094C86.769,125.156,0,211.925,0,318.578
			S86.769,512,193.422,512c106.653,0,193.422-86.769,193.422-193.422c0-1.225-0.069-2.436-0.092-3.655
			C459.783,299.108,512,234.875,512,159.289z M193.422,489.244c-94.105,0-170.667-76.561-170.667-170.667
			s76.561-170.667,170.667-170.667c94.106,0,170.667,76.561,170.667,170.667S287.528,489.244,193.422,489.244z M296.053,154.745
			c2.328-29.247,26.822-52.345,56.658-52.345c31.37,0,56.889,25.519,56.889,56.889c0,29.836-23.097,54.331-52.344,56.659
			C341.72,191.236,320.764,170.281,296.053,154.745z M384.97,291.967c-2.667-19.275-8.175-37.644-16.1-54.684
			c36.194-7.489,63.486-39.611,63.486-77.994c0-43.917-35.728-79.644-79.644-79.644c-38.38,0-70.508,27.292-77.994,63.486
			c-17.044-7.928-35.419-13.439-54.703-16.103c14.628-61.05,68.736-104.272,132.697-104.272
			c75.286,0,136.533,61.247,136.533,136.533C489.244,223.014,445.942,277.306,384.97,291.967z"/>
	</g>
</g>
<g>
	<g>
		<path d="M182.044,216.178c-62.736,0-113.778,51.042-113.778,113.778c0,62.736,51.042,113.778,113.778,113.778
			c62.736,0,113.778-51.042,113.778-113.778C295.822,267.22,244.781,216.178,182.044,216.178z M182.044,420.978
			c-50.189,0-91.022-40.833-91.022-91.022c0-50.189,40.833-91.022,91.022-91.022c50.189,0,91.022,40.833,91.022,91.022
			C273.067,380.145,232.234,420.978,182.044,420.978z"/>
	</g>
</g>
</svg>